Patient4_TMGait_0pt6_01_right_20_EMG.mot
version=1
nRows=39
nColumns=33
inDegrees=no
endheader
time	1LAddLong	2LGlutMax	3LGlutMed	4LIliopsoas	5LSemiMemb	6LBicFemLong	7LRecFem	8LVastMed	9LVastLat	10LGasMed	11LTibAnt	12lTibPost	13LPeroneusLong	14LSol	15LExtDigLong	16LFlexDigLong	17RAddLong	18RGlutMax	19RGlutMed	20RIliopsoas	21RSemiMemb	22RBicFemLong	23RRecFem	24RVastMed	25RVastLat	26RGasMed	27RTibAnt	28RTibPost	29RPeroneusLong	30RSol	31RExtDigLong	32RFlexDigLong
25	0.010681	-0.13534	0.056	-0.015106	0.001831	0.25925	0.057526	-0.045013	-0.080566	-0.033112	0.0737	0.001221	0.57861	0.16815	0.096893	0.012207	-0.012512	-0.087433	0.14023	-0.03067	-0.053406	0.023193	-0.070496	-0.061646	-0.008392	-0.013885	-0.031738	-0.010376	-0.048523	-0.12192	0.003052	-0.017395
25.001	0.014496	-0.11765	0.054932	0.005646	0.010986	0.30487	0.05188	0.009308	-0.050812	-0.051575	-0.044098	0.002747	0.36224	0.17242	0.33188	0.013733	-0.008087	-0.010986	0.17334	-0.068817	-0.041046	0.031891	-0.074158	-0.043182	0.000458	-0.020447	-0.076599	-0.01236	-0.057373	-0.020142	0.004272	-0.021515
25.002	0.013733	-0.13626	0.063629	0.006714	0.022888	0.40207	-0.001373	-0.021973	0.030365	-0.051575	-0.065613	0.006714	-0.13153	0.11734	-0.11261	0.006104	-0.009766	-0.039978	0.13992	0.049744	-0.10803	0.055389	-0.049286	-0.056	-0.008698	-0.013885	-0.061798	-0.016327	-0.074005	0.10071	-0.002136	-0.019684
25.003	0.022888	-0.063934	0.16144	0.010986	0.043488	0.28275	0.023499	-0.021515	0.068207	-0.042419	0.007782	0.007477	0.073547	0.15427	0.22903	0.00412	-0.010071	-0.001221	0.081329	0.085297	-0.21149	0.031281	0.013733	-0.058289	-0.00885	-0.008698	-0.10864	-0.01297	-0.083313	0.036774	-0.002136	-0.014496
25.004	0.012665	-0.096436	0.15701	0.011139	0.048065	-0.041199	0.10864	-0.02243	0.015259	-0.027924	0.1683	0.010529	-0.001221	0.12955	-0.098572	0.003204	-0.007324	-0.025787	0.043793	0.008392	-0.23056	0.049133	-0.023956	-0.091248	-0.003204	-0.009918	-0.046387	0.016327	0.13092	-0.075684	0.00061	-0.011902
25.005	0.010223	-0.089417	0.047913	0.001984	0.027618	-0.33142	0.13718	-0.015106	-0.068817	-0.016479	0.3125	0.009918	-0.15137	0.009613	-0.20065	0.015106	0.003357	-0.02243	0.093231	-0.053101	-0.20126	0.037537	-0.019379	-0.048218	0.015106	-0.012054	0.068054	-0.002594	0.31494	-0.11093	0.000305	-0.00824
25.006	0.056305	-0.078278	0.11887	-0.001221	0.0177	-0.6604	0.080109	-0.018311	-0.05249	-0.059204	0.22537	0.011597	0.21027	0.068054	-0.093689	-0.007019	0.00946	-0.033112	0.099945	-0.035858	-0.033875	0.022736	0.019226	-0.074463	-0.000458	-0.011902	0.074615	-0.003052	0.28458	-0.039063	-0.001068	-0.01297
25.007	0.006561	-0.082855	0.09613	0.03479	0.037384	-0.54123	0.046082	-0.007782	-0.005798	-0.047455	0.19989	0.007477	-0.46631	0.21851	0.41016	-0.005798	0.018768	-0.016785	0.082092	0.018768	0.11902	0.034485	-0.037842	-0.087738	0.015106	-0.009308	0.085449	-0.010529	0.037384	-0.063934	0.002899	-0.007477
25.008	0.06073	-0.12711	0.004425	0.031738	0.046234	-0.32577	0.059052	-0.003662	0.00885	-0.058594	0.089569	0.00824	-0.28427	0.16998	0.079651	0.010529	0.014496	-0.074921	0.043335	0.088043	0.089417	-0.037537	-0.02533	-0.08316	0.019989	-0.010834	0.1767	-0.006256	-0.20828	-0.065002	0.000305	-0.012665
25.009	0.017395	-0.14282	-0.065155	0.028839	0.052185	-0.1767	0.081177	-0.000153	0.044403	-0.16724	-0.10696	0.009918	-0.67856	0.14725	-0.38422	0.006104	0.024261	-0.089874	0.045929	0.024261	0.043488	-0.039368	-0.033875	-0.11978	0.003815	-0.00946	0.24506	-0.00824	-0.4393	-0.055389	-0.002136	-0.010986
25.01	0.010681	-0.097046	-0.031586	-0.00351	0.04364	-0.080261	0.064697	0.011749	0.000916	-0.076752	-0.059509	0.007477	-0.94955	0.11963	-0.38498	0.00824	0.025635	-0.090942	-0.02243	0.00824	0.011902	0.021057	-0.025177	-0.10727	0.016022	-0.003967	0.18188	-0.008698	-0.2771	-0.067139	-0.000153	-0.016785
25.011	0.013733	-0.06485	0.011902	-0.007935	0.028992	-0.028992	0.020905	0.00885	0.000153	0.081635	-0.10986	-0.00473	-0.010071	0.13916	-0.39444	-0.010376	0.002899	-0.064697	-0.043488	-0.018158	-0.087585	0.06897	-0.004578	-0.12375	0.01358	-0.014343	0.2681	-0.009308	-0.13123	-0.03006	-0.000458	-0.010529
25.012	0.009308	-0.058441	0.066986	0.016022	0.028992	-0.028839	0.06424	0.012207	-0.00824	0.13855	-0.091095	0.00412	1.1284	-0.058594	-0.34439	-0.006409	-0.03006	-0.05722	-0.077362	-0.069122	-0.29953	0.053406	-0.004578	-0.082855	0.010986	-0.010071	0.35843	-0.011292	-0.096283	0.013733	-0.000305	-0.004883
25.013	0.002747	-0.020599	0.28397	0.01236	0.017853	0.031281	0.037079	0.014801	-0.054779	0.33173	-0.061188	0.001678	0.9642	-0.16159	-0.19363	-0.003357	-0.024414	-0.034027	-0.08194	-0.085297	-0.16541	-0.032501	-0.032501	0.005035	0.027313	-0.010986	0.039978	-0.005493	0.052032	-0.020905	-0.002747	-0.002899
25.014	-0.003052	-0.009918	0.27237	0.002747	-0.033264	0.039215	0.004578	-0.005341	-0.054626	0.70389	-0.069885	-0.002289	0.26184	-0.098572	-0.024872	-0.002899	-0.040588	-0.021515	-0.023193	-0.083618	-0.019531	0.020294	-0.05188	0.016174	0.043793	-0.004272	-0.24063	-0.011902	0.090027	-0.070038	-0.001526	-0.002747
25.015	0.000305	-0.032654	0.29816	-0.006409	-0.069122	0.031281	0.056305	-0.025482	-0.10651	0.70007	-0.050659	0.013123	-0.35385	-0.17822	0.16724	0.006714	-0.015106	-0.022583	-0.20493	0.034485	0.031281	0.047302	0.002441	-0.011292	0.019531	-0.010986	-0.31906	-0.00946	0.038452	-0.030975	-0.000763	0.000916
25.016	0.006256	-0.02243	0.20477	-0.005493	-0.036011	0.028534	0.014343	-0.010986	-0.070496	0.26245	-0.034027	-0.002441	-0.44464	-0.10452	0.27496	0.006561	0.001526	-0.028381	-0.22171	0.028076	0.002441	-0.062866	0.004883	-0.043182	0.010071	-0.006866	-0.41016	-0.007935	0.017395	0.015717	0.002747	-0.002747
25.017	0.020905	-0.015869	0.15091	-0.011292	0.11459	0.041199	-0.05722	-0.00351	0.085907	-0.51575	-0.058899	0.005188	-0.40527	0.054016	0.25284	0.021667	0.020599	-0.081024	-0.16937	-0.15671	-0.054321	-0.10376	0.03891	-0.070801	0.016022	-0.008698	-0.20325	-0.007172	-0.13153	-0.00061	-0.002136	0.002441
25.018	0.016174	-0.005188	0.18784	0.005951	0.094147	0.0737	-0.019836	-0.001373	0.21545	-0.58121	-0.050354	0.001068	-0.20248	-0.15213	0.13534	0.019226	0.024872	-0.055847	0.2858	-0.21378	0.000458	-0.10162	-0.025024	-0.080719	0.034637	-0.012817	-0.088501	-0.007477	-0.19409	-0.00473	0.00351	0.002136
25.019	0.012665	-0.0383	0.15884	-0.001221	0.030365	0.058136	0.16403	-0.001831	0.16983	-0.50827	-0.045471	0.024414	-0.040894	-0.17868	0.087738	0.023956	0.002289	-0.03952	0.45334	-0.10239	-0.084229	-0.029755	-0.01297	-0.044861	0.028687	-0.010986	-0.037842	-0.006104	-0.15762	-0.017548	0.001068	0.001373
25.02	0.015411	-0.035095	0.12802	0.011139	0.036469	0.001526	0.23697	-0.015411	0.10086	-0.42496	-0.031128	0.027313	0.01236	-0.32669	0.049438	0.023499	-0.023346	-0.023499	0.74661	0.072021	-0.088348	0.007935	-0.030518	-0.098114	0.028076	-0.007782	-0.02121	-0.007629	-0.053864	-0.031891	-0.000458	-0.001373
25.021	0.018616	-0.03006	0.058441	0.028229	0.075684	0.018768	0.19012	-0.007782	0.017242	-0.25909	-0.001526	0.028229	-0.15289	-0.3418	0.094147	-0.025482	-0.017548	-0.024261	0.69809	0.13214	-0.072021	-0.047302	-0.020599	-0.079498	0.036621	-0.021057	-0.00946	-0.01297	-0.01297	-0.049133	-0.001068	0.003357
25.022	0.019531	-0.044708	0.1207	0.018463	0.062866	0.064392	0.02655	-0.006561	-0.000305	-0.20798	0.023651	0.021057	-0.045624	-0.19714	0.13092	-0.02533	-0.000153	-0.05249	0.40009	0.083313	-0.15808	-0.12985	-0.044403	-0.071869	0.027161	-0.02594	0.062256	-0.008392	0.092773	-0.068817	-0.001526	0.005035
25.023	0.011749	-0.050049	0.094452	0.015411	0.030975	0.073547	0.038147	0.016479	-0.032654	-0.011444	0.009766	0.016632	-0.051422	-0.22247	0.08316	-0.017242	0.006409	-0.05188	0.052795	0.0354	-0.20783	-0.10971	-0.050964	-0.078278	0.025482	-0.032654	0.18967	-0.01297	0.093994	-0.053406	-0.00061	0.004272
25.024	0.009613	-0.037842	0.075073	0.000763	0.020142	0.081177	0.1091	0.018921	-0.011444	-0.056458	0.008392	-0.001221	0.059814	-0.18066	0.06958	-0.022888	-0.021057	-0.051117	-0.033875	0.003967	0.036774	-0.010376	-0.067902	-0.054626	0.016174	-0.008392	0.26642	-0.016937	0.091705	-0.059662	0.002289	0.003052
25.025	0.005798	-0.072174	0.063934	0.012665	0.023499	0.052032	0.14664	0.018921	-0.06134	-0.066681	-0.009766	0.002899	0.23346	-0.13534	0.058136	-0.020142	-0.058441	-0.029297	-0.082397	-0.012207	0.0354	0.14343	-0.027008	-0.056458	0.036163	0.016785	0.30792	-0.014496	0.079041	-0.040283	0.003204	-0.003357
25.026	0.015259	-0.011444	0.15533	0.014343	0.017395	0.047913	0.168	0.004425	0.066223	0.082245	-0.005188	0.010681	0.099335	-0.12405	-0.006256	-0.019989	-0.044861	0.006714	-0.046387	0.11749	-0.18875	0.4248	-0.042419	-0.012512	0.028839	0.002747	0.1442	-0.013733	0.13855	-0.059052	0.001526	-0.00061
25.027	0.02655	0.008545	0.13931	0.039215	0.026398	0.051422	0.18601	-0.018005	0.1088	0.095673	0.010071	0.018616	-0.05722	-0.021667	-0.060425	-0.003357	-0.010376	-0.032806	0.019684	0.097656	-0.36468	0.1831	-0.076599	-0.02182	0.037079	-0.006866	-0.35446	-0.003357	0.15396	-0.063934	-0.000916	0.007629
25.028	0.012207	-0.005951	0.021057	0.005951	0.030212	0.038757	0.14771	-0.021362	0.057373	0.077972	0.033417	0.022888	-0.052338	0.10071	-0.069733	-0.002136	0.035095	0.009155	0.15274	-0.009613	-0.29846	0.021057	-0.074615	-0.028076	0.054016	-0.004578	-0.36545	0.001831	0.18448	-0.083771	-0.001526	-0.005341
25.029	0.007172	0.032806	-0.018768	-0.01236	-0.005035	0.06485	0.057678	-0.003204	0.049591	0.00885	0.057068	0.013275	-0.024261	0.16647	-0.03891	-0.003052	0.03891	0.050354	0.09552	-0.13718	0.13123	-0.036926	-0.042267	-0.068817	0.023193	-0.002289	-0.17181	-0.005493	-0.37445	-0.090027	-0.003357	-0.013275
25.03	0.011902	0.036774	0.000153	-0.012207	0.013123	0.024109	0.058289	-0.010681	0.045013	-0.001984	0.040741	0.015106	0.18921	0.21698	-0.029907	-0.012665	0.00824	0.081024	0.11429	-0.11536	0.18295	-0.023804	-0.023651	-0.076752	0.022278	-0.007019	-0.027924	-0.011597	0.24048	-0.073242	-0.002289	-0.005951
25.031	0.006866	0.072784	0.067749	-0.002747	0.017242	0.022125	0.074768	-0.005188	0.043182	0.001831	-0.025482	0.015411	0.1738	0.18219	-0.003815	-0.004578	-0.030823	0.02121	0.22415	-0.026703	0.058136	0.013123	-0.082703	-0.042877	0.043945	-0.014191	0.050201	-0.013123	0.21271	-0.019379	-0.002136	-0.004425
25.032	0.009613	0.026855	0.12451	-0.010681	0.028687	0.029755	0.08316	-0.001678	0.02533	0.01297	0.006561	0.010071	0.015564	0.20386	0.018921	0.000153	-0.055389	-0.019684	0.159	-0.009155	0.15213	0.086212	-0.063782	-0.033112	0.049133	-0.007324	0.10101	-0.009766	0.30151	-0.044556	-0.002441	-0.004883
25.033	0.003204	-0.00473	0.18845	-0.006409	0.021057	0.017395	0.10147	-0.003662	0.016174	-0.012512	0.037079	0.009308	0.24826	0.15182	0.003204	-0.008392	-0.062866	-0.036926	0.20828	-0.031586	0.15945	0.013733	-0.009766	-0.014801	0.034943	-0.006866	0.027161	-0.00824	-0.016022	-0.028839	-0.007172	-0.001068
25.034	0.012665	-0.040741	0.033417	0.025787	0.014648	0.00473	0.1178	0.002136	0.004425	-0.041046	0.004425	0.005035	0.53741	0.17197	0.011597	0.002747	-0.048523	-0.091248	0.10208	0.023804	-0.036469	0.041962	-0.036621	-0.008698	0.040436	-0.01358	-0.15213	-0.00946	-0.16464	-0.1181	-0.003052	0
25.035	0.002899	-0.038605	-0.005951	0.040894	0.020294	0.002594	0.19272	-0.000153	0.047913	-0.034485	-0.011139	0.000763	0.58197	0.21912	0.080414	0.024719	-0.028992	-0.089722	0.057526	0.011292	-0.067444	0.029297	-0.047913	0.005951	0.047455	-0.017395	-0.10651	-0.010681	0.057831	-0.089874	-0.005493	0.007172
25.036	0.004425	-0.037689	0.036316	0.000458	0.023804	-0.002441	0.19012	-0.00412	0.026855	-0.04364	-0.038757	0.012817	-0.14343	0.20721	0.030823	-0.002594	0.006409	-0.11459	-0.082855	-0.015717	-0.084534	0.005493	-0.059509	-0.052338	0.046539	-0.021057	-0.018463	-0.01358	0.26077	-0.008545	0	0.000153
25.037	0.00824	-0.008545	0.19684	0.018158	0.020294	0.021057	0.16098	-0.005341	0.016785	-0.02533	-0.046234	0.00412	-0.56671	0.18112	-0.10422	0.00351	0.022736	-0.07309	-0.20157	-0.054932	-0.12512	-0.057373	-0.043945	-0.085602	0.053711	-0.011597	0.022888	-0.005035	-0.33279	0.011749	-0.006866	-0.012817
25.038	0.006409	0.000153	0.2034	0.010529	0.008087	0.012207	0.18845	-0.013885	0.007935	0.032959	-0.000305	0.002899	-0.52689	0.045929	-0.23636	0.003967	0.048676	-0.048828	-0.37079	-0.072174	-0.16235	-0.13519	0.00824	-0.072327	0.031128	-0.014801	0.063019	-0.009308	-0.57709	0.013733	-0.001678	-0.00946
